<svg width="498" height="435" viewBox="0 0 498 435" fill="none" xmlns="http://www.w3.org/2000/svg">
<path d="M306.26 431.557C301.524 429.997 278.808 419.306 255.781 407.797C220.837 390.333 212.294 388.048 204.115 393.979C179.398 411.902 154.013 419.227 128.655 415.751C95.2223 411.169 7.78774 361.859 7.76147 347.572C7.718 329.74 23.4605 330.361 58.4059 349.572C77.0644 359.83 96.21 366.734 100.952 364.914C114.151 359.849 231.631 152.799 231.631 134.602C231.631 104.872 191.819 82.2608 160.581 94.2481C148.56 98.8608 99.5941 183.406 99.5941 199.548C99.5941 206.677 104.115 220.183 109.64 229.562C119.46 246.23 119.348 247.222 104.713 273.503C96.4777 288.292 86.0113 301.128 81.4546 302.028C66.2666 305.028 26.8984 270.696 13.2884 242.582C-8.26552 198.057 -4.93197 175.296 33.1398 107.048C73.0567 35.493 92.592 13.9381 126.004 4.58328C161.282 -5.29398 192.322 0.374714 241.508 25.6776C276.862 43.8649 285.397 46.2651 293.59 40.3236C318.307 22.3999 343.692 15.0752 369.05 18.5508C402.483 23.1333 489.918 72.443 489.944 86.7301C489.987 104.563 474.245 103.941 439.299 84.7298C420.641 74.4723 401.495 67.5686 396.753 69.3882C383.554 74.4532 266.075 281.503 266.075 299.7C266.075 329.43 305.886 352.041 337.125 340.054C349.145 335.441 398.111 250.896 398.111 234.754C398.111 227.626 393.59 214.119 388.065 204.74C378.245 188.072 378.357 187.08 392.992 160.799C401.228 146.01 411.694 133.174 416.251 132.274C431.438 129.274 470.807 163.606 484.417 191.721C505.971 236.246 502.637 259.007 464.565 327.254C425.882 396.597 405.569 419.765 375.572 428.752C353.349 435.41 321.838 436.685 306.26 431.557Z" fill="#F7931A"/>
</svg>
